<svg width="157" height="14" viewBox="0 0 157 14" fill="none" xmlns="http://www.w3.org/2000/svg">
<path d="M26.9544 0.000976562L26.6795 0.011182L25.9427 0.0336314L25.2393 0.088737L24.5366 0.176496L23.8658 0.29759L23.1848 0.439774L22.5365 0.616653L21.8874 0.824826L21.2724 1.0779L20.6452 1.34118L20.052 1.64936L19.4588 1.97862L18.8982 2.35279L18.3376 2.73716L17.7988 3.16576L17.2716 3.61612L16.7661 4.11138L16.2606 4.60596L15.7987 5.1332L15.3701 5.66112L14.9749 6.21012L14.6014 6.75981L14.2707 7.34215L13.9639 7.92449L13.7 8.54017L13.4469 9.14496L13.238 9.7824L13.0516 10.4192L12.9081 11.0791L12.7877 11.7383L12.6992 12.4308L12.6448 13.1234L12.623 13.8486H21.5908L21.6126 13.3322L21.7004 12.837L21.8323 12.3648L22.0085 11.9138L22.2283 11.4743L22.4922 11.0682L22.7997 10.6831L23.1515 10.3212L23.5249 9.96881L23.9318 9.68308L24.3495 9.4198L24.7998 9.22115L25.2502 9.04563L25.7448 8.9361L26.24 8.86944L26.7782 8.84766H26.8333L27.2176 8.83678L27.5918 8.84766L27.9211 8.881L28.2401 8.9361L30.6579 0.803057L30.2185 0.605088L29.7674 0.439774L29.2953 0.29759L28.8116 0.188062L28.5476 0.132956L28.2946 0.0996211L27.7782 0.0445168L27.2394 0.011182L26.9544 0.000976562Z" fill="white"/>
<path d="M14.7655 0.0117188L14.0287 0.0334895L13.315 0.0885938L12.6116 0.177033L11.9408 0.297447L11.2598 0.440312L10.6108 0.616511L9.9625 0.825364L9.3475 1.07844L8.72094 1.34172L8.12703 1.64989L7.54469 1.97916L6.98412 2.35333L6.42355 2.7377L5.88475 3.16629L5.35751 3.61666L4.85204 4.11124L4.34658 4.6065L3.88533 5.13374L3.45606 5.66097L3.0608 6.21066L2.68731 6.76035L2.35804 7.34269L2.04987 7.92503L1.78591 8.5407L1.53283 9.14482L1.32398 9.78226L1.13758 10.4197L0.994713 11.0789L0.873619 11.7388L0.785859 12.4314L0.730755 13.1232L0.708984 13.8491H9.66588L9.68765 13.4532L9.74276 13.0688L9.82031 12.6953L9.92984 12.3429L10.0611 11.9912L10.2265 11.6504L10.4135 11.3211L10.6333 11.0129L10.853 10.6946L11.1061 10.4197L11.3694 10.1666L11.666 9.93601L11.9633 9.70539L12.2817 9.5183L12.6116 9.35367L12.9742 9.21149L13.2266 8.5407L13.5014 7.89237L13.7981 7.26513L14.1389 6.66102L14.4906 6.07868L14.875 5.51811L15.2825 4.97999L15.7328 4.46296L16.1832 3.96837L16.6778 3.49624L17.1941 3.04588L17.7323 2.61661L18.2935 2.20979L18.8867 1.82541L19.5024 1.46281L20.1507 1.12198L19.4364 0.83625L18.733 0.605626L18.0404 0.407657L17.3703 0.264793L16.6996 0.132814L16.0403 0.055939L15.392 0.0117188H14.7655Z" fill="white"/>
<path d="M47.925 0.000976562L46.9467 0.0166241L46.4725 0.0465579L46.0296 0.107785L45.5861 0.153366L45.1731 0.230241L44.3942 0.428208L44.0118 0.535697L43.6601 0.673119L43.3091 0.81122L43.0036 0.978575L42.392 1.33029L42.1172 1.52894L41.8723 1.7582L41.6124 1.9725L41.3831 2.21673L40.9852 2.75213L40.6341 3.31746L40.4811 3.62292L40.3593 3.95967L40.2212 4.2801L40.1293 4.63181L40.0382 4.9985L39.9769 5.39648L39.9157 5.77813L39.8851 6.19107L39.8545 7.06186V7.47413L39.8851 7.90272L39.9157 8.30002L39.9926 8.71228L40.0681 9.07965L40.1756 9.46198L40.2981 9.81302L40.4511 10.1647L40.5879 10.4858L40.7715 10.8063L40.9552 11.0974L41.1845 11.4029L41.4131 11.6777L41.6736 11.9533L41.9335 12.1975L42.239 12.458L42.7431 12.8091L43.2785 13.1145L43.8438 13.3744L44.4704 13.6037L45.0969 13.7717L45.7541 13.8942L46.4419 13.9704L47.1916 14.001L47.344 13.986H47.512H47.8481L48.5053 13.9554L48.8114 13.9248L48.9638 13.9091H49.1325L49.774 13.8479L50.3706 13.7561L50.9816 13.6499L51.5625 13.5275L52.1428 13.3901V5.86997H48.8413V8.42315V11.0974L48.5821 11.1893L48.444 11.2199H48.3991L48.3685 11.2349L48.3073 11.2648H48.2154H48.1692L48.1386 11.2804L47.9855 11.311H47.8025H47.7107H47.6644L47.6338 11.326L47.1603 11.2954L46.7167 11.2498L46.2888 11.143L45.9078 11.0362L45.5248 10.8682L45.1888 10.6845L44.8527 10.4552L44.5622 10.1953L44.2717 9.87424L44.1343 9.70621L44.0275 9.55382L43.8288 9.2021L43.6601 8.81977L43.5227 8.40683L43.4309 7.97891L43.3846 7.53536L43.3703 7.06186L43.3846 6.49653L43.4622 5.99242L43.5683 5.51825L43.737 5.09034L43.9356 4.67739L44.1955 4.31071L44.486 3.97464L44.8527 3.68415L45.1731 3.43924L45.5555 3.24127L45.9378 3.07256L46.3807 2.93581L46.8242 2.82832L47.3283 2.75213L47.8331 2.70587L48.3991 2.6909H48.8114L49.2386 2.73648L49.6366 2.79771L50.0495 2.90452L50.4162 3.01133L50.7986 3.1644L51.1496 3.33243L51.5163 3.56169L51.7918 0.611891L51.3938 0.459503L50.9816 0.337048L50.538 0.230241L50.0645 0.153366L49.5604 0.0771717L49.0407 0.0315903L48.4903 0.000976562H47.925Z" fill="white"/>
<path d="M54.5742 0.245117V13.7716H63.2712V11.0973H57.9819V0.245117H54.5742Z" fill="white"/>
<path d="M70.6377 3.02757H70.6683L72.1963 8.33054H68.9873L70.6377 3.02757ZM68.5743 0.245117L63.7285 13.7716H67.1831L68.192 10.883H72.9915L73.9542 13.7716H77.6836L72.7623 0.245117H68.5743Z" fill="white"/>
<path d="M83.6437 0.000976562L83.109 0.0465579L82.5892 0.107785L82.1157 0.214593L81.6416 0.322081L81.2286 0.47515L80.8164 0.642505L80.4646 0.856801L80.0218 1.13164L79.6551 1.45275L79.334 1.80447L79.0891 2.21673L78.8754 2.62968L78.753 3.10317L78.6612 3.60795L78.6455 4.15832V4.47943L78.6918 4.8155L78.7373 5.12095L78.8292 5.42709L78.921 5.70193L79.0584 5.97678L79.1959 6.22169L79.3952 6.48156L79.5782 6.69586L79.8075 6.92444L80.0524 7.12377L80.3422 7.32174L80.6334 7.49046L80.9538 7.67346L81.2898 7.82653L81.6722 7.97891L82.1307 8.13198L82.345 8.19321L82.5437 8.28505L82.8797 8.40683L83.0328 8.45309L83.1859 8.51431L83.292 8.54493H83.3076L83.3382 8.5599L83.3995 8.59051L83.5832 8.65174H83.5981L83.6287 8.66738L83.6743 8.698L83.7355 8.72861L83.9349 8.83542L84.1328 8.97284L84.3016 9.11026L84.439 9.2783L84.5458 9.43137L84.622 9.61437L84.6682 9.79805L84.6832 10.0117L84.6682 10.0729V10.1498L84.6376 10.3028L84.607 10.3641L84.5914 10.3947V10.4396L84.5608 10.5008L84.5458 10.5314V10.5777L84.4539 10.6845L84.3628 10.792L84.2553 10.8831L84.1941 10.9287L84.1485 10.9899L83.9954 11.0512L83.8424 11.128L83.7512 11.143L83.6743 11.1736L83.4913 11.2349L83.277 11.2648L83.0634 11.2954L82.8185 11.311L82.5743 11.326L82.0851 11.311L81.611 11.2648L81.1524 11.1893L80.7089 11.0974L80.266 10.9593L79.8537 10.8226L79.4408 10.6389L79.0584 10.4396L78.768 13.42L79.1809 13.5425L79.6245 13.6642L80.0673 13.7561L80.5415 13.8479L81.015 13.9091L81.5198 13.9554L82.0239 13.986L82.5743 14.001L82.9103 13.986L83.2464 13.9704L83.5675 13.9397L83.7206 13.9248H83.8886L84.1791 13.8636L84.3159 13.8329L84.4689 13.8173L84.7444 13.7561L84.8819 13.7261L85.0349 13.7112L85.2792 13.6193L85.5241 13.5425L85.7533 13.4506L85.9982 13.3588L86.1962 13.2363L86.4105 13.1302L86.5935 13.0077L86.7928 12.886L86.9452 12.7172L87.1133 12.5649L87.1745 12.473L87.2051 12.4274L87.2514 12.3968L87.4038 12.2437L87.4187 12.1825L87.4493 12.1363L87.5106 12.0451L87.633 11.8614L87.6487 11.8002L87.6786 11.7539L87.7398 11.6621L87.8466 11.4791L87.8772 11.3566L87.8929 11.2954L87.9235 11.2498L87.9997 11.0362L88.0609 10.8063L88.1222 10.5777L88.1528 10.3178L88.1834 10.0729V9.93547L88.1983 9.81302V9.6756L88.214 9.55382L88.1983 9.2021L88.1528 8.86535L88.0915 8.54493L88.0153 8.25444L87.9079 7.96395L87.7704 7.68842L87.618 7.42855L87.4493 7.19997L87.2357 6.95506L87.0065 6.74076L86.7622 6.54279L86.5023 6.35911L86.1962 6.17611L85.8758 6.00739L85.539 5.85432L85.1873 5.73255L84.8057 5.61009L84.4846 5.51825L84.1635 5.42709L83.9043 5.35022L83.6437 5.25838L83.4451 5.18218L83.2464 5.12095L83.109 5.05973L82.8797 4.93795L82.6811 4.83046L82.513 4.69304L82.3906 4.57059L82.2831 4.4182L82.2076 4.26581L82.1613 4.09709V3.94403V3.77599L82.1919 3.63857L82.2994 3.37801L82.3607 3.25624L82.4668 3.1644L82.7273 2.99636L83.0478 2.85894L83.2314 2.79771L83.4451 2.7671L83.6594 2.72152L83.9043 2.70587L84.4539 2.6909H84.8206L85.203 2.72152L85.5696 2.7671L85.9363 2.84397L86.2731 2.92017L86.6241 3.02765L86.9602 3.14943L87.2969 3.3025L87.5106 0.505083L87.1439 0.367662L86.7772 0.275821L86.3799 0.183979L85.9826 0.123432L85.5547 0.0622041L85.1268 0.0315903L84.6682 0.000976562H83.6437Z" fill="white"/>
<path d="M94.8472 0.000976562L94.3118 0.0465579L93.7927 0.107785L93.3192 0.214593L92.845 0.322081L92.4321 0.47515L92.0198 0.642505L91.6681 0.856801L91.2252 1.13164L90.8578 1.45275L90.5374 1.80447L90.2925 2.21673L90.0789 2.62968L89.9408 3.10317L89.849 3.60795L89.834 4.15832V4.47943L89.8796 4.8155L89.9258 5.12095L90.0177 5.42709L90.1095 5.70193L90.2469 5.97678L90.3843 6.22169L90.5823 6.48156L90.766 6.69586L90.9953 6.92444L91.2402 7.12377L91.5307 7.32174L91.8211 7.49046L92.1423 7.67346L92.4783 7.82653L92.86 7.97891L93.3192 8.13198L93.7471 8.28505L94.0832 8.40683L94.2362 8.45309L94.3893 8.51431L94.4954 8.54493H94.5111L94.5417 8.5599L94.6029 8.59051L94.7859 8.65174H94.8016L94.8315 8.66738L94.8778 8.698L94.939 8.72861L95.1376 8.83542L95.3363 8.97284L95.505 9.11026L95.6418 9.2783L95.7492 9.43137L95.8254 9.61437L95.8717 9.79805L95.8867 10.0117L95.8717 10.0729V10.1498L95.8411 10.3028L95.8105 10.3641L95.7948 10.3947V10.4396L95.7642 10.5008L95.7492 10.5314V10.5777L95.6574 10.6845L95.5662 10.792L95.4587 10.8831L95.3975 10.9287L95.3519 10.9899L95.1989 11.0512L95.0458 11.128L94.9546 11.143L94.8778 11.1736L94.6948 11.2349L94.4805 11.2648L94.2668 11.2954L94.0219 11.311L93.7777 11.326L93.2729 11.311L92.7994 11.2648L92.3409 11.1893L91.898 11.0974L91.4538 10.9593L91.0415 10.8226L90.6442 10.6389L90.2619 10.4396L89.9714 13.42L90.3843 13.5425L90.8272 13.6642L91.2708 13.7561L91.745 13.8479L92.2184 13.9091L92.7226 13.9554L93.2273 13.986L93.7777 14.001L94.1138 13.986L94.4498 13.9704L94.7703 13.9397L94.9233 13.9248H95.0921L95.3825 13.8636L95.52 13.8329L95.6724 13.8173L95.9479 13.7561L96.0853 13.7261L96.2384 13.7112L96.4826 13.6193L96.7275 13.5425L96.9561 13.4506L97.201 13.3588L97.3997 13.2363L97.6139 13.1302L97.797 13.0077L97.9963 12.886L98.1487 12.7172L98.3167 12.5649L98.3779 12.473L98.4085 12.4274L98.4548 12.3968L98.6072 12.2437L98.6222 12.1825L98.6528 12.1363L98.714 12.0451L98.8365 11.8614L98.8521 11.8002L98.8827 11.7539L98.9439 11.6621L99.0501 11.4791L99.1113 11.2498L99.1882 11.0362L99.2487 10.8063L99.3106 10.5777L99.3406 10.3178L99.3712 10.0729V9.93547L99.3868 9.81302V9.6756L99.4018 9.55382L99.3868 9.2021L99.3406 8.86535L99.28 8.54493L99.2031 8.25444L99.0963 7.96395L98.9589 7.68842L98.8058 7.42855L98.6378 7.19997L98.4242 6.95506L98.1943 6.74076L97.95 6.54279L97.6901 6.35911L97.3847 6.17611L97.0636 6.00739L96.7275 5.85432L96.3758 5.73255L95.9935 5.61009L95.6724 5.51825L95.3519 5.42709L95.0921 5.35022L94.8315 5.25838L94.6335 5.18218L94.4349 5.12095L94.2975 5.05973L94.0675 4.93795L93.8695 4.83046L93.7008 4.69304L93.5784 4.57059L93.4723 4.4182L93.3954 4.26581L93.3498 4.09709V3.94403V3.77599L93.3804 3.63857L93.4872 3.37801L93.5478 3.25624L93.6553 3.1644L93.9151 2.99636L94.2362 2.85894L94.4192 2.79771L94.6335 2.7671L94.8472 2.72152L95.0921 2.70587L95.6418 2.6909H96.0241L96.4064 2.72152L96.7724 2.7671L97.1398 2.84397L97.4765 2.92017L97.8276 3.02765L98.1487 3.14943L98.4854 3.3025L98.714 0.505083L98.3323 0.367662L97.9657 0.275821L97.5684 0.183979L97.1704 0.123432L96.7425 0.0622041L96.3146 0.0315903L95.856 0.000976562H94.8472Z" fill="white"/>
<path d="M104.827 2.92008H106.142L106.616 2.93572L107.059 2.9813L107.472 3.0575L107.869 3.16431L108.221 3.30241L108.542 3.47044L108.832 3.66909L109.123 3.92829L109.351 4.18885L109.443 4.32627L109.551 4.4943L109.718 4.81541L109.871 5.19706L109.979 5.57939L110.055 6.02227L110.101 6.49644L110.131 7.00123L110.116 7.04681V7.10736V7.22981L110.101 7.47404L110.07 7.70398L110.055 7.94821L110.009 8.16251L109.979 8.3768L109.917 8.57545L109.871 8.78975L109.841 8.81968L109.825 8.86526L109.795 8.9571L109.718 9.14079L109.626 9.30882L109.551 9.49251L109.489 9.55373L109.459 9.58435L109.443 9.62925L109.351 9.78231L109.23 9.92042L109.123 10.0728L108.97 10.1796L108.832 10.3021L108.679 10.3939L108.634 10.4096L108.603 10.4395L108.542 10.5007L108.45 10.5313L108.404 10.547L108.374 10.5776L108.221 10.6694L108.038 10.7456L107.869 10.8368H107.808L107.762 10.8524L107.67 10.883L107.472 10.9443L107.257 10.9749H107.197L107.151 10.9899L107.059 11.0205H106.937H106.876L106.83 11.0361L106.616 11.0667L106.372 11.0817H106.249H106.188L106.142 11.0973H104.827V2.92008ZM101.419 0.245117V13.7716H106.081L106.295 13.756H106.524L106.982 13.741L107.41 13.6954L107.838 13.6641L108.236 13.5886L108.634 13.5274L109 13.4356L109.382 13.3437L109.718 13.2219L110.055 13.0995L110.361 12.9464L110.514 12.8695L110.681 12.809L110.956 12.6253L111.232 12.4573L111.353 12.3505L111.492 12.2586L111.614 12.1511L111.751 12.06L111.966 11.8307L112.179 11.6014L112.271 11.464L112.378 11.3416L112.577 11.0973L112.73 10.8062L112.898 10.5313L113.035 10.2259L113.173 9.92042L113.264 9.58435L113.372 9.2476L113.447 8.88091L113.478 8.69723L113.494 8.60607L113.524 8.52919V8.42239L113.539 8.33054L113.57 8.14686V8.04005L113.586 7.94821L113.616 7.76521V7.55091V7.44411L113.631 7.35227L113.647 6.95497L113.631 6.48147L113.6 6.05288L113.555 5.62497L113.509 5.22767L113.417 4.83037L113.326 4.46369L113.219 4.097L113.111 3.77522L112.959 3.43915L112.806 3.13369L112.638 2.82824L112.455 2.56904L112.241 2.29352L112.026 2.06425L111.781 1.83431L111.537 1.63634L111.293 1.45266L111.048 1.29959L110.498 1.0091L110.192 0.871678L109.902 0.76487L109.581 0.658062L109.259 0.581188L108.893 0.490027L108.542 0.428119L107.777 0.321992L107.365 0.275731L106.952 0.260764L106.081 0.245117H101.419Z" fill="white"/>
<path d="M118.997 2.79762H119.899H120.189L120.465 2.81327L120.724 2.84388L120.969 2.88946L121.397 2.99627L121.763 3.16431L121.901 3.25615L122.024 3.36296L122.131 3.48541L122.222 3.62283L122.283 3.76025L122.344 3.92829L122.375 4.097L122.391 4.29565H122.375V4.31062V4.34123V4.40246V4.52492L122.344 4.63172L122.329 4.75418L122.283 4.84602L122.252 4.95283L122.176 5.13583L122.054 5.2889L121.978 5.35013L121.916 5.427L121.748 5.54878L121.565 5.65558L121.412 5.6862L121.259 5.73246L121.076 5.76307H121.014H120.984H120.969V5.77804L120.878 5.80865H120.755H120.694H120.663H120.648V5.8243L120.419 5.85423H120.158H120.022L119.899 5.86988H118.997V2.79762ZM121.672 0.245117H115.589V13.7716H118.997V8.42239H119.716H119.93L120.144 8.45232L120.327 8.48361L120.525 8.55981L120.678 8.63668L120.847 8.74349L120.984 8.8503L121.122 9.00337L121.229 9.15643L121.351 9.3544L121.473 9.58435L121.595 9.85919L121.718 10.1646L121.84 10.5164L121.963 10.8987L122.115 11.3259L122.849 13.7716H126.395L125.157 10.0878L125.019 9.70612L124.912 9.38502L124.805 9.09521L124.713 8.83533L124.622 8.60607L124.545 8.40674L124.469 8.2387L124.423 8.10128L124.301 7.90263L124.193 7.7346L124.072 7.56588L123.949 7.44411L123.796 7.32165L123.659 7.22981L123.491 7.15362L123.338 7.10736V7.06177L123.628 6.97061L123.904 6.86313L124.163 6.74067L124.408 6.6189L124.622 6.45086L124.713 6.35902L124.729 6.32841L124.759 6.31276L124.821 6.28282L125.004 6.09914L125.034 6.03792L125.049 6.0073L125.08 5.99165L125.172 5.89981L125.233 5.77804L125.263 5.71681L125.279 5.6862L125.31 5.67123L125.432 5.427V5.38074L125.446 5.35013L125.477 5.2889L125.539 5.16644L125.63 4.90725L125.691 4.61676L125.753 4.31062L125.784 3.98952L125.798 3.65345L125.768 3.24118L125.722 2.85885L125.615 2.49148L125.493 2.17106L125.31 1.84996L125.11 1.57511L124.851 1.31524L124.591 1.08597L124.285 0.871678L123.98 0.703643L123.644 0.550574L123.292 0.444447L122.91 0.336958L122.513 0.291378L122.099 0.245117H121.672Z" fill="white"/>
<rect x="128.061" y="0.245117" width="3.40833" height="13.5265" fill="white"/>
<path d="M142.382 0.245117L139.524 10.8681H139.478L136.635 0.245117H133.013L137.308 13.7716H141.511L145.882 0.245117H142.382Z" fill="white"/>
<path d="M147.165 0.245117V13.7716H156.382V11.2198H150.573V8.14686H155.862V5.59436H150.573V2.79762H156.168V0.245117H147.165Z" fill="white"/>
</svg>
