<svg width="120" height="50" viewBox="0 0 120 50" fill="none" xmlns="http://www.w3.org/2000/svg">
<path d="M4.84808 43.1657C3.18657 42.662 2.46019 42.3426 2.46019 41.3928C2.46019 40.5431 3.59144 40.2412 4.56089 40.2412C5.40846 40.2412 6.32047 40.4934 6.94038 40.899C7.08608 40.9942 7.2661 41.023 7.43421 40.9767C7.60302 40.9319 7.74522 40.8149 7.82297 40.6587L8.10526 40.0948C8.24395 39.8167 8.15289 39.4784 7.89231 39.3075C6.99992 38.7247 5.73488 38.3633 4.59031 38.3633C2.18421 38.3633 0.566827 39.5989 0.566827 41.4376C0.566827 43.8269 2.58487 44.4314 4.20435 44.9176C5.90019 45.4261 6.64128 45.7525 6.63287 46.7626C6.63287 47.7755 5.43928 48.1362 4.32413 48.1362C3.25452 48.1362 2.09104 47.5674 1.38357 46.9146C1.24278 46.785 1.06066 46.71 0.87223 46.7318C0.682404 46.7528 0.512891 46.8621 0.415526 47.0267L0.0905089 47.5758C-0.0544879 47.8175 -0.0138607 48.1271 0.185772 48.3246C1.23577 49.3578 2.81393 50.0001 4.30942 50.0001C6.83111 50.0001 8.52484 48.6917 8.52484 46.7521C8.54445 44.2871 6.49418 43.6651 4.84808 43.1657Z" fill="white"/>
<path d="M15.9584 38.7505C15.8582 38.5327 15.6411 38.3926 15.4008 38.3926H14.734C14.493 38.3926 14.2751 38.5327 14.1764 38.7519L9.47484 49.1181C9.38868 49.3087 9.40479 49.5279 9.51687 49.7037C9.63105 49.8802 9.82437 49.9846 10.0324 49.9846H10.714C10.9549 49.9846 11.1735 49.8438 11.2729 49.6246L12.4448 47.0335H17.7214L18.908 49.6274C19.0075 49.8445 19.2253 49.9846 19.4642 49.9846H20.1472C20.3566 49.9846 20.5499 49.8781 20.6627 49.703C20.7755 49.5279 20.7909 49.308 20.704 49.116L15.9584 38.7505ZM13.2658 45.1843L15.0625 41.2008L16.8802 45.1843H13.2658Z" fill="white"/>
<path d="M23.7798 38.3926H23.1578C22.8188 38.3926 22.5449 38.6672 22.5449 39.0055V49.371C22.5449 49.71 22.8188 49.9839 23.1578 49.9839H23.7798C24.1175 49.9839 24.3928 49.71 24.3928 49.371V39.0055C24.3928 38.6672 24.1175 38.3926 23.7798 38.3926Z" fill="white"/>
<path d="M36.7114 38.3926H36.1034C35.7637 38.3926 35.4898 38.6672 35.4898 39.0055V46.5551L29.671 38.6419C29.5554 38.4843 29.3726 38.3926 29.1772 38.3926H28.4508C28.1118 38.3926 27.8379 38.6672 27.8379 39.0055V49.371C27.8379 49.71 28.1118 49.9839 28.4508 49.9839H29.0728C29.4118 49.9839 29.6864 49.71 29.6864 49.371V41.8249L35.4898 49.7352C35.6047 49.8914 35.7889 49.9839 35.985 49.9839H36.7114C37.0497 49.9839 37.3243 49.71 37.3243 49.371V39.0055C37.3243 38.6672 37.0497 38.3926 36.7114 38.3926Z" fill="white"/>
<path d="M47.4043 38.3926H39.7805C39.4421 38.3926 39.1689 38.6672 39.1689 39.0055V39.6142C39.1689 39.9511 39.4421 40.2257 39.7805 40.2257H42.6692V49.371C42.6692 49.71 42.9438 49.9839 43.2821 49.9839H43.9027C44.2431 49.9839 44.5177 49.71 44.5177 49.371V40.2257H47.4043C47.7434 40.2257 48.0172 39.9511 48.0172 39.6142V39.0055C48.0172 38.6672 47.7434 38.3926 47.4043 38.3926Z" fill="white"/>
<path d="M51.9635 44.043H48.6552C48.3176 44.043 48.043 44.3169 48.043 44.6559V45.1602C48.043 45.4992 48.3176 45.7724 48.6552 45.7724H51.9635C52.3018 45.7724 52.575 45.4992 52.575 45.1602V44.6559C52.575 44.3169 52.3018 44.043 51.9635 44.043Z" fill="white"/>
<path d="M64.844 43.6718H64.2801L64.2696 43.6725H62.4294C62.0904 43.6725 61.8158 43.9471 61.8158 44.2854V44.9081C61.8158 45.2464 62.0904 45.521 62.4294 45.521H63.6679V47.4158C62.9464 47.911 62.0785 48.18 61.1959 48.18C58.9089 48.18 57.0485 46.3868 57.0485 44.1817C57.0485 41.9844 58.9089 40.1968 61.1959 40.1968C62.2578 40.1968 63.3029 40.5876 64.0643 41.2706C64.189 41.3827 64.3557 41.4394 64.5224 41.4254C64.6906 41.4128 64.8447 41.3301 64.9504 41.1998L65.321 40.7403C65.5269 40.4833 65.4961 40.1099 65.2474 39.8928C64.1344 38.917 62.6942 38.377 61.1959 38.377C57.8897 38.377 55.1992 40.9799 55.1992 44.1817C55.1992 47.3899 57.8757 49.9984 61.1658 49.9984C62.6536 49.9984 64.1386 49.4527 65.2446 48.5015C65.3791 48.3852 65.4576 48.2157 65.4576 48.0364V44.2847C65.4576 43.9471 65.1823 43.6718 64.844 43.6718Z" fill="white"/>
<path d="M73.534 38.3779C70.2362 38.3779 67.5527 40.9809 67.5527 44.1813C67.5527 47.3901 70.2362 49.9987 73.534 49.9987C76.8318 49.9987 79.516 47.3901 79.516 44.1813C79.516 40.9809 76.8318 38.3779 73.534 38.3779ZM73.534 48.1656C71.2624 48.1656 69.4153 46.378 69.4153 44.1813C69.4153 41.9923 71.2624 40.2118 73.534 40.2118C75.8042 40.2118 77.6521 41.9923 77.6521 44.1813C77.6521 46.378 75.8042 48.1656 73.534 48.1656Z" fill="white"/>
<path d="M89.3335 43.8604C89.9576 43.3239 90.3043 42.5323 90.3043 41.5706C90.3043 39.61 88.8305 38.3926 86.458 38.3926H82.216C81.8791 38.3926 81.6045 38.6672 81.6045 39.0048V49.3717C81.6045 49.71 81.8791 49.9846 82.216 49.9846H86.4882C89.2032 49.9846 90.8226 48.7133 90.8226 46.5852C90.8226 45.3804 90.2777 44.4222 89.3335 43.8604ZM86.4433 43.0941H83.4516V40.2264H86.4433C87.3602 40.2264 88.4558 40.4723 88.4558 41.6455C88.4558 42.6066 87.7784 43.0941 86.4433 43.0941ZM83.4516 44.9272H86.4433C87.3883 44.9272 88.9741 45.1325 88.9741 46.5096C88.9741 47.8664 87.5984 48.1515 86.4433 48.1515H83.4516V44.9272Z" fill="white"/>
<path d="M98.3437 38.7505C98.2436 38.5327 98.0264 38.3926 97.7862 38.3926H97.1193C96.8776 38.3926 96.6598 38.5327 96.5596 38.7519L91.8595 49.1181C91.7733 49.3087 91.7894 49.5279 91.9029 49.7037C92.0164 49.8802 92.2097 49.9846 92.4185 49.9846H93.1007C93.3417 49.9846 93.5602 49.8438 93.659 49.6246L94.8309 47.0335H100.106L101.292 49.6274C101.392 49.8445 101.611 49.9846 101.85 49.9846H102.532C102.74 49.9846 102.935 49.8781 103.047 49.703C103.16 49.5279 103.176 49.308 103.089 49.116L98.3437 38.7505ZM95.6511 45.1843L97.4478 41.2008L99.2655 45.1843H95.6511Z" fill="white"/>
<path d="M106.166 38.3926H105.543C105.205 38.3926 104.93 38.6672 104.93 39.0055V49.371C104.93 49.71 105.205 49.9839 105.543 49.9839H106.166C106.504 49.9839 106.78 49.71 106.78 49.371V39.0055C106.78 38.6672 106.504 38.3926 106.166 38.3926Z" fill="white"/>
<path d="M119.098 38.3926H118.489C118.151 38.3926 117.877 38.6672 117.877 39.0055V46.5551L112.057 38.6419C111.943 38.4843 111.759 38.3926 111.564 38.3926H110.837C110.498 38.3926 110.224 38.6672 110.224 39.0055V49.371C110.224 49.71 110.498 49.9839 110.837 49.9839H111.46C111.798 49.9839 112.071 49.71 112.071 49.371V41.8249L117.877 49.7352C117.992 49.8914 118.175 49.9839 118.37 49.9839H119.098C119.436 49.9839 119.709 49.71 119.709 49.371V39.0055C119.709 38.6672 119.436 38.3926 119.098 38.3926Z" fill="white"/>
<path d="M67.2981 22.1271V32.3182H65.4216V20.7248L67.2981 22.1271ZM103.673 32.2846H96.2919L96.2393 32.2335L89.7474 25.8123C89.4833 25.551 89.0756 25.4705 88.731 25.6141C88.3822 25.7598 88.1559 26.0981 88.1559 26.4763V32.3182H86.2275V17.8613C86.2275 17.6056 86.1197 17.3584 85.9341 17.1825L80.5405 12.0887C80.3667 11.9241 80.1377 11.8338 79.8988 11.8338H77.2027C76.6872 11.8338 76.2676 12.2533 76.2676 12.7675V32.3182H74.3539V0.931691C74.3539 0.550637 74.1263 0.211611 73.7739 0.0680151C73.4286 -0.0741798 73.0139 0.0119777 72.7541 0.276054L63.8217 9.3401C63.648 9.51592 63.5527 9.74918 63.5527 9.99574V16.9976L59.8956 14.2665C59.5629 14.0192 59.0753 14.0276 58.7524 14.2861L50.4365 20.9532C50.2137 21.1311 50.0869 21.3972 50.0869 21.6823V32.3182H48.202V26.456C48.202 24.3974 46.7842 22.2091 44.1589 22.2091C41.5328 22.2091 40.1158 24.4079 40.1158 26.4763V32.3182L38.2098 32.3175V28.3403C38.2098 26.7285 37.1003 25.0166 35.0437 25.0166C32.9871 25.0166 31.8776 26.7306 31.8776 28.3445V32.3189L29.9786 32.3203L29.9779 32.1438C29.9751 31.3425 29.9723 30.3156 29.9723 29.9037C29.9723 28.535 28.6799 27.3344 27.2062 27.3344C25.7324 27.3344 24.4393 28.5294 24.4393 29.8918V32.3182L16.1122 32.3175C15.5966 32.3175 15.1784 32.7364 15.1777 33.2513C15.1777 33.5013 15.2744 33.736 15.4509 33.9125C15.6274 34.089 15.8621 34.1864 16.1115 34.1864L25.3737 34.1871C25.6231 34.1871 25.8585 34.0897 26.0336 33.9132C26.2101 33.7367 26.3082 33.5027 26.3082 33.2534V30.0606C26.3082 29.7153 26.685 29.2026 27.2062 29.2026C27.7196 29.2026 28.1042 29.6712 28.1042 30.0907C28.1042 30.331 28.114 33.259 28.114 33.259C28.1168 33.7724 28.5349 34.1899 29.0477 34.1899L32.8127 34.1871C33.3268 34.1871 33.7464 33.7675 33.7464 33.2534V28.3445C33.7464 27.8387 34.0175 26.8847 35.0437 26.8847C36.0699 26.8847 36.3417 27.8359 36.3417 28.3403V33.2506C36.3417 33.7661 36.7605 34.185 37.2747 34.185L41.0488 34.1871C41.2954 34.1871 41.5363 34.0869 41.71 33.9132C41.8838 33.7395 41.9839 33.4985 41.9839 33.2534V26.4763C41.9839 25.647 42.4385 24.0772 44.1589 24.0772C45.7545 24.0772 46.3331 25.4992 46.3331 26.456V33.2534C46.3331 33.7675 46.7527 34.1871 47.2675 34.1871H51.0207C51.5362 34.1871 51.9551 33.7675 51.9551 33.2534V22.1306L52.0223 22.0767L59.3562 16.1963L63.5527 19.3295V33.2534C63.5527 33.7675 63.9723 34.1871 64.4864 34.1871H68.2325C68.7474 34.1871 69.167 33.7675 69.167 33.2534V21.6578C69.167 21.3657 69.0255 21.0855 68.7915 20.9097L65.4216 18.3929V10.3789L65.4727 10.3264L72.4851 3.21031V33.2534C72.4851 33.7675 72.9047 34.1871 73.4188 34.1871H77.2027C77.7169 34.1871 78.1364 33.7675 78.1364 33.2534V13.7019H79.5269L79.5787 13.7502L84.3587 18.2641V33.2534C84.3587 33.7675 84.7776 34.1871 85.2924 34.1871H89.0897C89.6052 34.1871 90.0248 33.7675 90.0248 33.2534V28.7143L95.2503 33.8824C95.4268 34.0561 95.66 34.1528 95.9066 34.1528H103.673C104.188 34.1528 104.608 33.7332 104.608 33.2183C104.608 32.7028 104.188 32.2846 103.673 32.2846Z" fill="white"/>
</svg>
